<svg xmlns="http://www.w3.org/2000/svg" width="12.665" height="12.665" viewBox="0 0 12.665 12.665">
  <path id="Icon_awesome-plus-circle" data-name="Icon awesome-plus-circle" d="M6.895.563a6.332,6.332,0,1,0,6.332,6.332A6.331,6.331,0,0,0,6.895.563ZM10.572,7.61a.307.307,0,0,1-.306.306H7.916v2.349a.307.307,0,0,1-.306.306H6.18a.307.307,0,0,1-.306-.306V7.916H3.524a.307.307,0,0,1-.306-.306V6.18a.307.307,0,0,1,.306-.306H5.874V3.524a.307.307,0,0,1,.306-.306H7.61a.307.307,0,0,1,.306.306V5.874h2.349a.307.307,0,0,1,.306.306Z" transform="translate(-0.563 -0.563)" fill="#00857a"/>
</svg>
