<?xml version="1.0" standalone="no"?>
<!DOCTYPE svg PUBLIC "-//W3C//DTD SVG 20010904//EN"
 "http://www.w3.org/TR/2001/REC-SVG-20010904/DTD/svg10.dtd">
<svg version="1.0" xmlns="http://www.w3.org/2000/svg"
 width="20.278" height="21.249" viewBox="0 0 24.000000 24.000000"
 preserveAspectRatio="xMidYMid meet">

<g transform="translate(0.000000,24.000000) scale(0.100000,-0.100000)"
fill="#08453F" stroke="none">
<path d="M50 200 c-11 -11 -20 -31 -20 -45 0 -29 32 -65 58 -65 15 0 18 6 14
29 -3 23 2 36 23 55 26 24 26 25 6 35 -30 17 -59 13 -81 -9z"/>
<path d="M132 158 c-19 -19 -14 -56 8 -68 43 -23 83 17 60 60 -12 22 -49 27
-68 8z"/>
<path d="M84 66 c-10 -26 4 -48 28 -44 33 4 33 52 0 56 -13 2 -25 -3 -28 -12z"/>
</g>
</svg>
