<svg id="Groupe_48" data-name="Groupe 48" xmlns="http://www.w3.org/2000/svg" width="24" height="24" viewBox="0 0 24 24">
  <path id="Tracé_4" data-name="Tracé 4" d="M0,0H24V24H0Z" fill="none"/>
  <path id="Tracé_5" data-name="Tracé 5" d="M5.567,16.157H19.061V4.88H3.9V17.459Zm.656,1.88L2,21.326V3.94A.944.944,0,0,1,2.948,3H20.009a.944.944,0,0,1,.948.94V17.1a.944.944,0,0,1-.948.94Zm4.308-4.7h1.9v1.88h-1.9ZM8.224,8.463A3.316,3.316,0,1,1,11.478,12.4H10.53v-1.88h.948a1.411,1.411,0,1,0-1.394-1.686l-1.86-.369Z" transform="translate(0.522 0.782)"/>
</svg>
