<?xml version="1.0" standalone="no"?>
<!DOCTYPE svg PUBLIC "-//W3C//DTD SVG 20010904//EN"
 "http://www.w3.org/TR/2001/REC-SVG-20010904/DTD/svg10.dtd">
<svg version="1.0" xmlns="http://www.w3.org/2000/svg"
 width="512.000000pt" height="512.000000pt" viewBox="0 0 512.000000 512.000000"
 preserveAspectRatio="xMidYMid meet">

<g transform="translate(0.000000,512.000000) scale(0.100000,-0.100000)"
fill="#08433D" stroke="none">
<path d="M2335 5109 c-763 -78 -1446 -546 -1770 -1214 -255 -525 -270 -1092
-45 -1665 232 -587 732 -1212 1440 -1800 249 -207 563 -430 605 -430 13 0 54
21 91 47 759 517 1433 1208 1773 1816 231 413 333 768 332 1162 -1 523 -197
1006 -569 1398 -341 361 -792 596 -1292 672 -126 19 -440 27 -565 14z m502
-175 c695 -93 1282 -510 1573 -1116 174 -364 226 -728 160 -1113 -94 -541
-439 -1114 -1025 -1701 -275 -276 -537 -499 -856 -731 l-126 -91 -140 102
c-755 547 -1356 1199 -1652 1793 -101 203 -171 402 -212 600 -29 145 -37 432
-15 583 93 640 496 1185 1091 1476 210 102 384 156 625 194 151 23 418 25 577
4z"/>
<path d="M2500 4583 c-212 -7 -472 -73 -661 -169 -479 -241 -809 -696 -890
-1229 -15 -103 -15 -357 0 -460 82 -539 411 -990 899 -1234 365 -183 852 -214
1237 -79 554 193 952 646 1075 1223 31 143 38 403 16 545 -58 365 -205 663
-451 913 -327 331 -762 505 -1225 490z m345 -194 c513 -103 934 -470 1101
-960 178 -522 53 -1083 -331 -1488 -122 -128 -259 -226 -435 -310 -485 -231
-1069 -169 -1501 159 -468 357 -677 952 -534 1520 66 263 193 486 386 679 237
237 541 383 874 421 114 12 323 3 440 -21z"/>
<path d="M2535 4095 c-28 -12 -934 -788 -982 -841 -22 -24 -29 -66 -17 -99 11
-28 60 -45 134 -45 l70 0 0 -485 c0 -515 1 -531 47 -550 21 -9 1477 -28 1511
-20 12 3 31 14 42 25 19 19 20 36 20 525 l0 505 89 0 c73 0 93 3 114 20 33 26
44 73 23 104 -22 34 -961 849 -994 863 -21 9 -34 8 -57 -2z m415 -520 l333
-290 -361 -3 c-199 -1 -524 -1 -721 0 l-359 3 361 312 360 312 26 -22 c15 -12
177 -152 361 -312z m250 -910 l0 -445 -155 0 -155 0 -1 223 c0 240 -7 283 -49
304 -19 10 -89 13 -287 11 -258 -3 -263 -3 -285 -26 -22 -22 -23 -28 -26 -262
l-3 -240 -165 0 -164 0 0 440 0 440 645 0 645 0 0 -445z m-480 -254 c0 -99 -3
-181 -7 -183 -5 -2 -74 -2 -155 0 l-148 3 0 180 0 179 155 0 155 0 0 -179z"/>
</g>
</svg>
