<svg id="Formation" xmlns="http://www.w3.org/2000/svg" width="33.707" height="33.707" viewBox="0 0 33.707 33.707">
  <path id="Tracé_38" data-name="Tracé 38" d="M0,0H33.707V33.707H0Z" fill="none"/>
  <path id="Tracé_39" data-name="Tracé 39" d="M6.351,2.929l2.1,2.134a12.209,12.209,0,0,0,0,17.073l-2.1,2.132a15.256,15.256,0,0,1,0-21.339Zm21.006,0a15.26,15.26,0,0,1,0,21.34l-2.1-2.134a12.209,12.209,0,0,0,0-17.073l2.1-2.132ZM10.551,7.2l2.1,2.135a6.1,6.1,0,0,0,0,8.535L10.551,20a9.159,9.159,0,0,1,0-12.805Zm12.6,0a9.159,9.159,0,0,1,0,12.805l-2.1-2.135a6.1,6.1,0,0,0,0-8.535Zm-6.3,9.421A3.018,3.018,0,1,1,19.824,13.6,2.995,2.995,0,0,1,16.854,16.617Zm-1.485,3.018h2.971V31.707H15.368Z" fill="#08453f"/>
</svg>
