<svg xmlns="http://www.w3.org/2000/svg" width="18.278" height="21.249" viewBox="0 0 18.278 21.249">
  <path id="Icon_simple-graphcool" data-name="Icon simple-graphcool" d="M18.938,6.675a2.608,2.608,0,0,0-2.414.293l-4.24,2.405a1.657,1.657,0,1,0,.6,1.008l4.228-2.4.027-.016c.278-.176.923-.439,1.224-.269.217.123.341.533.351,1.136h-.005v5.3a1.39,1.39,0,0,1-.693,1.2l-6.08,3.512a1.39,1.39,0,0,1-1.386,0l-6.08-3.512a1.39,1.39,0,0,1-.693-1.2V7.116a1.387,1.387,0,0,1,.693-1.2l5.5-3.175a1.654,1.654,0,1,0-.407-1.118L3.89,4.9A2.559,2.559,0,0,0,2.607,7.116v7.019A2.559,2.559,0,0,0,3.886,16.35l6.079,3.512a2.563,2.563,0,0,0,2.557,0L18.6,16.35a2.563,2.563,0,0,0,1.279-2.213v-5.1h0a2.419,2.419,0,0,0-.945-2.359Z" transform="translate(-2.107 0.514)" fill="none" stroke="#08453f" stroke-width="1"/>
</svg>
