<svg xmlns="http://www.w3.org/2000/svg" width="21.609" height="17.862" viewBox="0 0 21.609 17.862"><defs><style>.a{fill:none;stroke:#08433D;stroke-width:2px;stroke-linecap:round;stroke-linejoin:round;}</style></defs><g transform="translate(-1 -4)"><path class="a" d="M16.489,28.121V26.247A3.747,3.747,0,0,0,12.742,22.5H5.247A3.747,3.747,0,0,0,1.5,26.247v1.874" transform="translate(0 -6.758)"/><path class="a" d="M14.994,8.247A3.747,3.747,0,1,1,11.247,4.5,3.747,3.747,0,0,1,14.994,8.247Z" transform="translate(-2.253)"/><path class="a" d="M32.81,28.194V26.32A3.747,3.747,0,0,0,30,22.7" transform="translate(-10.701 -6.832)"/><path class="a" d="M24,4.7a3.747,3.747,0,0,1,0,7.26" transform="translate(-8.448 -0.073)"/></g></svg>