<svg xmlns="http://www.w3.org/2000/svg" width="13.578" height="13.578" viewBox="0 0 13.578 13.578">
  <path id="Icon_awesome-chevron-circle-left" data-name="Icon awesome-chevron-circle-left" d="M7.352,14.141a6.789,6.789,0,1,1,6.789-6.789A6.788,6.788,0,0,1,7.352,14.141ZM4.234,7.817l3.709,3.709a.654.654,0,0,0,.928,0l.465-.465a.654.654,0,0,0,0-.928L6.555,7.352,9.336,4.57a.654.654,0,0,0,0-.928l-.465-.465a.654.654,0,0,0-.928,0L4.234,6.886A.658.658,0,0,0,4.234,7.817Z" transform="translate(-0.563 -0.563)" fill="#08453f"/>
</svg>
