<svg xmlns="http://www.w3.org/2000/svg" width="20" height="20" viewBox="0 0 20 20">
  <g id="Modifier" transform="translate(-15168.529 -1812.029)">
    <g id="Groupe_103" data-name="Groupe 103" transform="translate(15173.521 1817.022)">
      <path id="Tracé_48" data-name="Tracé 48" d="M0,0H10.015V10.015H0Z" fill="none"/>
      <path id="Tracé_49" data-name="Tracé 49" d="M4.425,7.859,8.657,3.627l-.59-.59L3.835,7.269v.59Zm.346.835H3V6.923L7.772,2.151a.417.417,0,0,1,.59,0l1.18,1.18a.417.417,0,0,1,0,.59ZM3,9.528h7.511v.835H3Z" transform="translate(-1.748 -1.182)" fill="#08453f"/>
    </g>
    <g id="Tracé_504" data-name="Tracé 504" transform="translate(15168.529 1812.029)" fill="none">
      <path d="M10,0A10,10,0,1,1,0,10,10,10,0,0,1,10,0Z" stroke="none"/>
      <path d="M 10 1 C 5.037380218505859 1 1 5.037380218505859 1 10 C 1 14.96261978149414 5.037380218505859 19 10 19 C 14.96261978149414 19 19 14.96261978149414 19 10 C 19 5.037380218505859 14.96261978149414 1 10 1 M 10 0 C 15.52285003662109 0 20 4.477149963378906 20 10 C 20 15.52285003662109 15.52285003662109 20 10 20 C 4.477149963378906 20 0 15.52285003662109 0 10 C 0 4.477149963378906 4.477149963378906 0 10 0 Z" stroke="none" fill="#08453f"/>
    </g>
  </g>
</svg>
