<svg xmlns="http://www.w3.org/2000/svg" width="33.158" height="22.528" viewBox="0 0 33.158 22.528"><defs><style>.a{opacity:0.5;}.b{fill:#4d4f5c;stroke:#707070;}</style></defs><g class="a" transform="translate(0.539 -74.167)"><path class="b" d="M173.181,170.667a2.514,2.514,0,1,0,2.514,2.514A2.516,2.516,0,0,0,173.181,170.667Z" transform="translate(-157.141 -87.751)"/><path class="b" d="M16.041,74.667A17.243,17.243,0,0,0,0,85.431a17.334,17.334,0,0,0,32.081,0A17.235,17.235,0,0,0,16.041,74.667Zm0,17.94a7.177,7.177,0,1,1,7.291-7.176A7.237,7.237,0,0,1,16.041,92.607Z"/></g></svg>