<?xml version="1.0" standalone="no"?>
<!DOCTYPE svg PUBLIC "-//W3C//DTD SVG 20010904//EN"
 "http://www.w3.org/TR/2001/REC-SVG-20010904/DTD/svg10.dtd">
<svg version="1.0" xmlns="http://www.w3.org/2000/svg"
 width="512.000000pt" height="512.000000pt" viewBox="0 0 512.000000 512.000000"
 preserveAspectRatio="xMidYMid meet">

<g transform="translate(0.000000,512.000000) scale(0.100000,-0.100000)"
fill="#08433D" stroke="none">
<path d="M1665 4640 c-478 -263 -875 -487 -882 -496 -10 -14 -13 -142 -13
-585 l0 -568 -275 -3 c-259 -3 -276 -4 -294 -23 -22 -23 -201 -464 -201 -496
0 -11 13 -34 29 -50 29 -28 32 -29 130 -29 l101 0 0 -909 c0 -500 3 -917 6
-926 17 -44 26 -45 709 -45 l645 0 0 -226 0 -226 29 -29 29 -29 882 0 882 0
29 29 29 29 0 226 0 226 645 0 c683 0 692 1 709 45 3 9 6 426 6 926 l0 909
101 0 c98 0 101 1 130 29 16 16 29 39 29 50 0 32 -179 473 -201 496 -18 19
-35 20 -294 23 l-275 3 0 568 c0 527 -1 570 -17 589 -26 30 -1746 972 -1774
972 -13 -1 -415 -217 -894 -480z m1712 -152 l803 -441 0 -1684 0 -1683 -340 0
-340 0 0 93 c0 197 -70 355 -209 470 -86 71 -185 107 -333 122 l-58 6 0 52 c0
49 3 54 40 81 49 36 118 123 153 191 93 185 80 419 -33 592 -83 126 -209 216
-356 253 -141 36 -295 18 -427 -52 -92 -48 -204 -165 -249 -258 -47 -99 -63
-166 -62 -275 1 -139 42 -254 131 -365 24 -30 61 -68 83 -85 36 -28 39 -34 40
-82 l0 -52 -57 -6 c-149 -15 -248 -51 -334 -122 -139 -115 -209 -273 -209
-470 l0 -93 -340 0 -340 0 0 1683 0 1683 803 442 c441 243 808 442 816 442 8
0 376 -199 818 -442z m-2609 -1800 l3 -128 -280 0 -279 0 45 113 c25 61 49
120 54 130 9 16 28 17 232 15 l222 -3 3 -127z m4089 0 l52 -128 -280 0 -279 0
0 123 c0 68 3 127 7 131 4 3 106 5 227 4 l221 -3 52 -127z m-4087 -1153 l0
-855 -170 0 -170 0 0 855 0 855 170 0 170 0 0 -855z m1895 839 c66 -17 128
-50 180 -95 34 -30 95 -115 95 -132 0 -6 -36 -8 -87 -5 -96 5 -150 26 -227 87
-68 54 -84 53 -178 -19 -28 -21 -73 -45 -100 -54 -52 -17 -168 -22 -168 -8 0
17 62 102 95 131 111 97 252 131 390 95z m2025 -839 l0 -855 -170 0 -170 0 0
855 0 855 170 0 170 0 0 -855z m-2093 505 c81 -52 173 -75 291 -74 l103 1 -6
-41 c-25 -165 -107 -281 -245 -349 -62 -30 -71 -32 -180 -32 -109 0 -118 2
-180 32 -138 68 -220 184 -245 349 l-6 41 118 5 c98 4 129 9 183 32 36 14 76
35 90 46 14 11 26 20 27 20 1 0 24 -14 50 -30z m-37 -665 c58 0 120 3 138 7
31 7 32 7 32 -25 0 -30 -7 -37 -80 -85 -44 -29 -84 -52 -90 -52 -5 0 -46 24
-90 53 -72 47 -80 55 -80 84 0 31 1 32 33 25 17 -4 79 -7 137 -7z m-198 -236
c47 -31 75 -56 71 -63 -4 -6 -29 -44 -56 -84 -90 -136 -91 -109 13 -373 51
-126 100 -239 110 -251 25 -32 95 -32 120 0 10 12 59 125 110 251 104 264 103
237 13 373 -27 40 -52 78 -56 84 -4 7 25 32 73 64 l80 52 107 -4 c94 -3 115
-8 166 -33 76 -38 158 -126 189 -202 22 -56 23 -68 26 -421 l3 -362 -771 0
-771 0 3 362 c3 352 4 365 26 420 40 100 147 196 252 229 14 4 67 8 119 8 l95
1 78 -51z m236 -239 c17 -27 32 -54 32 -59 0 -17 -63 -171 -70 -171 -7 0 -70
154 -70 171 0 11 63 109 70 109 3 0 20 -23 38 -50z"/>
<path d="M2503 4668 c-11 -13 -40 -64 -63 -115 l-42 -91 -62 -11 c-33 -5 -82
-13 -108 -16 -59 -9 -92 -41 -92 -91 0 -30 11 -45 82 -117 l82 -82 -20 -113
c-21 -122 -17 -149 22 -176 36 -25 64 -19 159 34 49 28 93 50 99 50 6 0 50
-22 99 -50 95 -53 123 -59 159 -34 39 27 43 54 22 176 l-20 113 82 82 c71 72
82 87 82 117 0 62 -29 81 -152 100 -58 9 -107 18 -109 20 -1 1 -21 42 -44 92
-51 112 -71 134 -119 134 -25 0 -43 -7 -57 -22z m75 -297 c15 -42 48 -68 98
-76 l45 -6 -37 -41 c-35 -39 -36 -43 -32 -99 2 -33 3 -59 1 -59 -1 0 -23 10
-48 22 l-45 22 -45 -22 c-25 -12 -47 -22 -48 -22 -2 0 -1 26 1 59 4 56 3 60
-32 99 l-37 40 43 7 c61 10 74 20 94 65 21 48 29 50 42 11z"/>
<path d="M1154 3828 c-40 -19 -44 -46 -44 -339 l0 -280 25 -24 24 -25 291 0
291 0 24 25 25 24 0 285 c0 156 -3 292 -6 301 -16 40 -50 45 -336 44 -166 0
-281 -4 -294 -11z m466 -328 l0 -170 -170 0 -170 0 0 170 0 170 170 0 170 0 0
-170z"/>
<path d="M3375 3828 c-44 -24 -45 -28 -45 -330 l0 -289 25 -24 24 -25 291 0
291 0 24 25 25 24 0 280 c0 297 -3 320 -47 340 -33 15 -560 15 -588 -1z m465
-328 l0 -170 -170 0 -170 0 0 170 0 170 170 0 170 0 0 -170z"/>
<path d="M2245 3555 l-25 -24 0 -286 0 -287 29 -29 29 -29 282 0 282 0 29 29
29 29 0 287 0 286 -25 24 -24 25 -291 0 -291 0 -24 -25z m485 -315 l0 -170
-170 0 -170 0 0 170 0 170 170 0 170 0 0 -170z"/>
<path d="M1135 2874 l-25 -27 0 -287 0 -287 25 -27 24 -26 291 0 291 0 24 25
25 24 0 291 0 291 -25 24 -24 25 -291 0 -291 0 -24 -26z m485 -314 l0 -170
-170 0 -170 0 0 170 0 170 170 0 170 0 0 -170z"/>
<path d="M3355 2875 l-25 -24 0 -291 0 -291 25 -24 24 -25 289 0 289 0 27 26
26 27 0 287 0 287 -25 27 -24 26 -291 0 -291 0 -24 -25z m485 -315 l0 -170
-170 0 -170 0 0 170 0 170 170 0 170 0 0 -170z"/>
<path d="M1135 1935 l-25 -24 0 -280 c0 -184 4 -288 11 -304 20 -44 44 -47
330 -47 282 0 317 5 333 45 3 9 6 145 6 301 l0 285 -25 24 -24 25 -291 0 -291
0 -24 -25z m485 -315 l0 -170 -170 0 -170 0 0 170 0 170 170 0 170 0 0 -170z"/>
<path d="M3355 1935 l-25 -24 0 -285 c0 -156 3 -292 6 -301 16 -40 51 -45 333
-45 286 0 310 3 330 47 7 16 11 120 11 304 l0 280 -25 24 -24 25 -291 0 -291
0 -24 -25z m485 -315 l0 -170 -170 0 -170 0 0 170 0 170 170 0 170 0 0 -170z"/>
</g>
</svg>
