<svg id="Parc_Numérique_2" data-name="Parc Numérique 2" xmlns="http://www.w3.org/2000/svg" width="32" height="32" viewBox="0 0 32 32">
  <path id="Tracé_40" data-name="Tracé 40" d="M0,0H32V32H0Z" fill="none"/>
  <path id="Tracé_41" data-name="Tracé 41" d="M14.6,26.111V11.667H4.8V26.111Zm0-17.333V4.444A1.423,1.423,0,0,1,16,3H28.6A1.423,1.423,0,0,1,30,4.444V27.556A1.423,1.423,0,0,1,28.6,29H3.4A1.423,1.423,0,0,1,2,27.556V10.222A1.423,1.423,0,0,1,3.4,8.778Zm2.8-2.889V26.111h9.8V5.889ZM6.2,21.778h7v2.889h-7Zm12.6,0h7v2.889h-7Zm0-4.333h7v2.889h-7Zm0-4.333h7V16h-7ZM6.2,17.444h7v2.889h-7Z" transform="translate(0 0)" fill="#08453f"/>
</svg>
