<svg id="Groupe_53" data-name="Groupe 53" xmlns="http://www.w3.org/2000/svg" width="24.024" height="24.024" viewBox="0 0 24.024 24.024">
  <path id="Tracé_9" data-name="Tracé 9" d="M0,0H24.024V24.024H0Z" fill="none"/>
  <path id="Tracé_10" data-name="Tracé 10" d="M15.807,2V3.9h2.751a.926.926,0,0,1,.908.943v15.2a.926.926,0,0,1-.908.943H3.908A.926.926,0,0,1,3,20.043V4.841A.926.926,0,0,1,3.908,3.9H6.659V2ZM6.659,5.8H4.83v13.29H17.636V5.8h-1.83V7.7H6.659Zm1.83,9.493v1.9H6.659v-1.9Zm0-2.848v1.9H6.659v-1.9Zm0-2.848v1.9H6.659v-1.9Zm5.489-5.7H8.489V5.8h5.489Z" transform="translate(0.779 0.52)"/>
</svg>
