<?xml version="1.0" standalone="no"?>
<!DOCTYPE svg PUBLIC "-//W3C//DTD SVG 20010904//EN"
 "http://www.w3.org/TR/2001/REC-SVG-20010904/DTD/svg10.dtd">
<svg version="1.0" xmlns="http://www.w3.org/2000/svg"
 width="18.278" height="21.249" viewBox="0 0 512.000000 512.000000"
 preserveAspectRatio="xMidYMid meet">

<g transform="translate(0.000000,512.000000) scale(0.100000,-0.100000)"
fill="#08453F" stroke="none">
<path d="M2380 5110 c-377 -52 -695 -221 -948 -506 -167 -186 -285 -423 -343
-689 -19 -88 -22 -140 -26 -422 l-5 -323 451 0 451 0 0 258 c0 290 10 357 72
475 42 80 163 201 245 245 79 42 198 72 283 72 85 0 203 -30 283 -72 81 -42
203 -164 245 -245 42 -80 72 -198 72 -283 0 -203 -102 -383 -293 -516 -324
-226 -527 -484 -657 -834 -78 -211 -100 -377 -100 -767 l0 -303 449 0 449 0 4
318 c4 290 7 323 27 390 56 190 166 337 335 451 104 70 240 187 303 259 183
210 306 462 360 737 27 137 24 416 -6 555 -129 604 -577 1054 -1176 1180 -114
24 -369 35 -475 20z"/>
<path d="M2110 450 l0 -450 450 0 450 0 0 450 0 450 -450 0 -450 0 0 -450z"/>
</g>
</svg>
