<svg id="Réseaux" xmlns="http://www.w3.org/2000/svg" width="32" height="32" viewBox="0 0 32 32">
  <path id="Tracé_18" data-name="Tracé 18" d="M0,0H32V32H0Z" fill="none"/>
  <path id="Tracé_19" data-name="Tracé 19" d="M20.333,3a1.445,1.445,0,0,1,1.444,1.444v5.778a1.445,1.445,0,0,1-1.444,1.444H17.444v2.889h5.778A1.445,1.445,0,0,1,24.667,16v4.333h2.889A1.445,1.445,0,0,1,29,21.778v5.778A1.445,1.445,0,0,1,27.556,29H18.889a1.445,1.445,0,0,1-1.444-1.444V21.778a1.445,1.445,0,0,1,1.444-1.444h2.889V17.444H10.222v2.889h2.889a1.445,1.445,0,0,1,1.444,1.444v5.778A1.445,1.445,0,0,1,13.111,29H4.444A1.445,1.445,0,0,1,3,27.556V21.778a1.445,1.445,0,0,1,1.444-1.444H7.333V16a1.445,1.445,0,0,1,1.444-1.444h5.778V11.667H11.667a1.445,1.445,0,0,1-1.444-1.444V4.444A1.445,1.445,0,0,1,11.667,3ZM11.667,23.222H5.889v2.889h5.778Zm14.444,0H20.333v2.889h5.778ZM18.889,5.889H13.111V8.778h5.778Z" transform="translate(0 0)" fill="#08453f"/>
</svg>
