<svg xmlns="http://www.w3.org/2000/svg" width="16.902" height="18.393" viewBox="0 0 16.902 18.393">
  <g id="Picto_stats" data-name="Picto stats" transform="translate(-11.525 -13.107)">
    <path id="Tracé_410" data-name="Tracé 410" d="M12.83,19.059h2.73c.25,0,.455-.136.455-.3V4.8c0-.167-.2-.3-.455-.3H12.83c-.25,0-.455.136-.455.3V18.755C12.375,18.922,12.58,19.059,12.83,19.059Z" transform="translate(3.75 12.441)" fill="#08453f"/>
    <path id="Tracé_411" data-name="Tracé 411" d="M6.075,29.25h2.7a.451.451,0,0,0,.45-.45V20.7a.451.451,0,0,0-.45-.45h-2.7a.451.451,0,0,0-.45.45v8.1A.451.451,0,0,0,6.075,29.25Z" transform="translate(5.9 2.25)" fill="#08453f"/>
    <path id="Tracé_412" data-name="Tracé 412" d="M19.569,28.041h2.623a.443.443,0,0,0,.444-.444v-11.4a.443.443,0,0,0-.444-.444H19.569a.443.443,0,0,0-.444.444V27.6A.443.443,0,0,0,19.569,28.041Z" transform="translate(1.64 3.459)" fill="#08453f"/>
    <path id="Tracé_413" data-name="Tracé 413" d="M25.875,9.466V26.927a.434.434,0,0,0,.4.466h2.353a.434.434,0,0,0,.4-.466V9.466a.434.434,0,0,0-.4-.466H26.274A.434.434,0,0,0,25.875,9.466Z" transform="translate(-0.598 4.107)" fill="#08453f"/>
  </g>
</svg>
