<svg id="Usages" xmlns="http://www.w3.org/2000/svg" width="32" height="32" viewBox="0 0 32 32">
  <path id="Tracé_20" data-name="Tracé 20" d="M0,0H32V32H0Z" fill="none"/>
  <path id="Tracé_21" data-name="Tracé 21" d="M16,14.6a7,7,0,0,1,7,7V30H20.2V21.6a4.2,4.2,0,0,0-3.954-4.193L16,17.4a4.2,4.2,0,0,0-4.193,3.954L11.8,21.6V30H9V21.6a7,7,0,0,1,7-7ZM6.9,18.8a4.958,4.958,0,0,1,1.134.132,8.326,8.326,0,0,0-.421,2.2L7.6,21.6v.12a2.089,2.089,0,0,0-.5-.112L6.9,21.6a2.1,2.1,0,0,0-2.09,1.9l-.01.2V30H2V23.7a4.9,4.9,0,0,1,4.9-4.9Zm18.2,0A4.9,4.9,0,0,1,30,23.7V30H27.2V23.7a2.1,2.1,0,0,0-1.9-2.09l-.2-.01a2.112,2.112,0,0,0-.7.119V21.6a8.349,8.349,0,0,0-.433-2.666A4.788,4.788,0,0,1,25.1,18.8ZM6.9,10.4a3.5,3.5,0,1,1-3.5,3.5,3.5,3.5,0,0,1,3.5-3.5Zm18.2,0a3.5,3.5,0,1,1-3.5,3.5,3.5,3.5,0,0,1,3.5-3.5ZM6.9,13.2a.7.7,0,1,0,.7.7A.7.7,0,0,0,6.9,13.2Zm18.2,0a.7.7,0,1,0,.7.7A.7.7,0,0,0,25.1,13.2ZM16,2a5.6,5.6,0,1,1-5.6,5.6A5.6,5.6,0,0,1,16,2Zm0,2.8a2.8,2.8,0,1,0,2.8,2.8A2.8,2.8,0,0,0,16,4.8Z" fill="#08453f"/>
</svg>
