<svg xmlns="http://www.w3.org/2000/svg" width="20" height="24" viewBox="0 0 20 24">
  <path id="icone_navbar" data-name="icone navbar" d="M0,24a8.82,8.82,0,0,1,8.572-9h2.857A8.82,8.82,0,0,1,20,24Zm3.714-3H16.429a5.717,5.717,0,0,0-5-3H8.715A5.717,5.717,0,0,0,3.714,21ZM4.286,7.5V6A5.88,5.88,0,0,1,10,0a5.88,5.88,0,0,1,5.714,6V7.5A5.88,5.88,0,0,1,10,13.5,5.88,5.88,0,0,1,4.286,7.5ZM7.143,6V7.5A2.94,2.94,0,0,0,10,10.5a2.94,2.94,0,0,0,2.858-3V6A2.94,2.94,0,0,0,10,3,2.94,2.94,0,0,0,7.143,6Z" fill="#575a5d"/>
</svg>
