<svg xmlns="http://www.w3.org/2000/svg" width="32.081" height="21.528" viewBox="0 0 32.081 21.528"><defs><style>.a{opacity:0.5;}.b{fill:#016066;}</style></defs><g class="a"><path class="b" d="M173.181,170.667a2.514,2.514,0,1,0,2.514,2.514A2.516,2.516,0,0,0,173.181,170.667Z" transform="translate(-157.141 -162.418)"/><path class="b" d="M16.041,74.667A17.243,17.243,0,0,0,0,85.431a17.334,17.334,0,0,0,32.081,0A17.235,17.235,0,0,0,16.041,74.667Zm0,17.94a7.177,7.177,0,1,1,7.291-7.176A7.237,7.237,0,0,1,16.041,92.607Z" transform="translate(0 -74.667)"/></g></svg>