<svg id="EcoConception" xmlns="http://www.w3.org/2000/svg" width="32" height="32" viewBox="0 0 32 32">
  <path id="Tracé_22" data-name="Tracé 22" d="M0,0H32V32H0Z" fill="none"/>
  <path id="Tracé_23" data-name="Tracé 23" d="M7.6,3a9.9,9.9,0,0,1,9.678,8.515A8.932,8.932,0,0,1,23.7,8.778H30v3.611a9.248,9.248,0,0,1-9.1,9.389H17.4V29H14.6V17.444H11.8A9.959,9.959,0,0,1,2,7.333V3Zm19.6,8.667H23.7a6.4,6.4,0,0,0-6.3,6.5v.722h3.5a6.4,6.4,0,0,0,6.3-6.5ZM7.6,5.889H4.8V7.333a7.114,7.114,0,0,0,7,7.222h2.8V13.111A7.114,7.114,0,0,0,7.6,5.889Z" transform="translate(0 0)" fill="#08453f"/>
</svg>
